<svg width="52" height="52" viewBox="0 0 52 52" fill="none" xmlns="http://www.w3.org/2000/svg">
<rect width="52" height="52" rx="26" fill="url(#paint0_linear_116_11506)" fill-opacity="0.1"/>
<rect x="0.5" y="0.5" width="51" height="51" rx="25.5" stroke="url(#paint1_linear_116_11506)" stroke-opacity="0.2"/>
<path d="M34.8418 31.1449C34.5091 31.9135 34.1153 32.6211 33.659 33.2715C33.0371 34.1583 32.5278 34.7721 32.1354 35.113C31.527 35.6724 30.8752 35.959 30.1772 35.9753C29.6761 35.9753 29.0718 35.8327 28.3684 35.5434C27.6626 35.2555 27.014 35.113 26.421 35.113C25.7991 35.113 25.132 35.2555 24.4185 35.5434C23.704 35.8327 23.1283 35.9834 22.6882 35.9984C22.0188 36.0269 21.3517 35.7322 20.6857 35.113C20.2607 34.7422 19.729 34.1067 19.0921 33.2063C18.4088 32.2449 17.847 31.13 17.4069 29.8589C16.9355 28.486 16.6992 27.1565 16.6992 25.8694C16.6992 24.3951 17.0178 23.1235 17.6559 22.0578C18.1574 21.2019 18.8246 20.5267 19.6596 20.0311C20.4946 19.5354 21.3969 19.2828 22.3685 19.2666C22.9002 19.2666 23.5974 19.4311 24.4637 19.7543C25.3277 20.0786 25.8824 20.243 26.1256 20.243C26.3075 20.243 26.9237 20.0507 27.9684 19.6674C28.9564 19.3119 29.7902 19.1647 30.4732 19.2226C32.3241 19.372 33.7147 20.1017 34.6395 21.4162C32.9841 22.4192 32.1653 23.824 32.1816 25.6262C32.1965 27.03 32.7057 28.1981 33.7066 29.1256C34.1601 29.5561 34.6667 29.8888 35.2302 30.1251C35.108 30.4795 34.979 30.819 34.8418 31.1449ZM30.5968 14.4404C30.5968 15.5406 30.1948 16.5679 29.3936 17.5188C28.4267 18.6492 27.2572 19.3024 25.989 19.1993C25.9729 19.0673 25.9635 18.9284 25.9635 18.7824C25.9635 17.7261 26.4233 16.5958 27.2399 15.6715C27.6475 15.2036 28.166 14.8145 28.7948 14.5041C29.4221 14.1983 30.0156 14.0292 30.5737 14.0002C30.59 14.1473 30.5968 14.2944 30.5968 14.4404V14.4404Z" fill="#CAFF33"/>
<defs>
<linearGradient id="paint0_linear_116_11506" x1="26" y1="-34.4324" x2="26" y2="134.216" gradientUnits="userSpaceOnUse">
<stop stop-color="#CAFF33"/>
<stop offset="0.467671" stop-color="#CAFF33" stop-opacity="0"/>
</linearGradient>
<linearGradient id="paint1_linear_116_11506" x1="26" y1="-90.2973" x2="26" y2="99.0811" gradientUnits="userSpaceOnUse">
<stop stop-color="#CAFF33"/>
<stop offset="0.716291" stop-color="#CAFF33" stop-opacity="0"/>
</linearGradient>
</defs>
</svg>
